<svg aria-roledescription="flowchart-v2" role="graphics-document document" viewBox="-8 -8 1841.318359375 316.5" style="max-width: 1841.32px; background-color: transparent;" xmlns:xlink="http://www.w3.org/1999/xlink" xmlns="http://www.w3.org/2000/svg" width="100%" id="my-svg"><style>#my-svg{font-family:"trebuchet ms",verdana,arial,sans-serif;font-size:16px;fill:#333;}#my-svg .error-icon{fill:#552222;}#my-svg .error-text{fill:#552222;stroke:#552222;}#my-svg .edge-thickness-normal{stroke-width:2px;}#my-svg .edge-thickness-thick{stroke-width:3.5px;}#my-svg .edge-pattern-solid{stroke-dasharray:0;}#my-svg .edge-pattern-dashed{stroke-dasharray:3;}#my-svg .edge-pattern-dotted{stroke-dasharray:2;}#my-svg .marker{fill:#333333;stroke:#333333;}#my-svg .marker.cross{stroke:#333333;}#my-svg svg{font-family:"trebuchet ms",verdana,arial,sans-serif;font-size:16px;}#my-svg .label{font-family:"trebuchet ms",verdana,arial,sans-serif;color:#333;}#my-svg .cluster-label text{fill:#333;}#my-svg .cluster-label span,#my-svg p{color:#333;}#my-svg .label text,#my-svg span,#my-svg p{fill:#333;color:#333;}#my-svg .node rect,#my-svg .node circle,#my-svg .node ellipse,#my-svg .node polygon,#my-svg .node path{fill:#ECECFF;stroke:#9370DB;stroke-width:1px;}#my-svg .flowchart-label text{text-anchor:middle;}#my-svg .node .label{text-align:center;}#my-svg .node.clickable{cursor:pointer;}#my-svg .arrowheadPath{fill:#333333;}#my-svg .edgePath .path{stroke:#333333;stroke-width:2.0px;}#my-svg .flowchart-link{stroke:#333333;fill:none;}#my-svg .edgeLabel{background-color:#e8e8e8;text-align:center;}#my-svg .edgeLabel rect{opacity:0.5;background-color:#e8e8e8;fill:#e8e8e8;}#my-svg .labelBkg{background-color:rgba(232, 232, 232, 0.5);}#my-svg .cluster rect{fill:#ffffde;stroke:#aaaa33;stroke-width:1px;}#my-svg .cluster text{fill:#333;}#my-svg .cluster span,#my-svg p{color:#333;}#my-svg div.mermaidTooltip{position:absolute;text-align:center;max-width:200px;padding:2px;font-family:"trebuchet ms",verdana,arial,sans-serif;font-size:12px;background:hsl(80, 100%, 96.2745098039%);border:1px solid #aaaa33;border-radius:2px;pointer-events:none;z-index:100;}#my-svg .flowchartTitleText{text-anchor:middle;font-size:18px;fill:#333;}#my-svg :root{--mermaid-font-family:"trebuchet ms",verdana,arial,sans-serif;}</style><g><marker orient="auto" markerHeight="12" markerWidth="12" markerUnits="userSpaceOnUse" refY="5" refX="6" viewBox="0 0 10 10" class="marker flowchart" id="my-svg_flowchart-pointEnd"><path style="stroke-width: 1; stroke-dasharray: 1, 0;" class="arrowMarkerPath" d="M 0 0 L 10 5 L 0 10 z"/></marker><marker orient="auto" markerHeight="12" markerWidth="12" markerUnits="userSpaceOnUse" refY="5" refX="4.5" viewBox="0 0 10 10" class="marker flowchart" id="my-svg_flowchart-pointStart"><path style="stroke-width: 1; stroke-dasharray: 1, 0;" class="arrowMarkerPath" d="M 0 5 L 10 10 L 10 0 z"/></marker><marker orient="auto" markerHeight="11" markerWidth="11" markerUnits="userSpaceOnUse" refY="5" refX="11" viewBox="0 0 10 10" class="marker flowchart" id="my-svg_flowchart-circleEnd"><circle style="stroke-width: 1; stroke-dasharray: 1, 0;" class="arrowMarkerPath" r="5" cy="5" cx="5"/></marker><marker orient="auto" markerHeight="11" markerWidth="11" markerUnits="userSpaceOnUse" refY="5" refX="-1" viewBox="0 0 10 10" class="marker flowchart" id="my-svg_flowchart-circleStart"><circle style="stroke-width: 1; stroke-dasharray: 1, 0;" class="arrowMarkerPath" r="5" cy="5" cx="5"/></marker><marker orient="auto" markerHeight="11" markerWidth="11" markerUnits="userSpaceOnUse" refY="5.2" refX="12" viewBox="0 0 11 11" class="marker cross flowchart" id="my-svg_flowchart-crossEnd"><path style="stroke-width: 2; stroke-dasharray: 1, 0;" class="arrowMarkerPath" d="M 1,1 l 9,9 M 10,1 l -9,9"/></marker><marker orient="auto" markerHeight="11" markerWidth="11" markerUnits="userSpaceOnUse" refY="5.2" refX="-1" viewBox="0 0 11 11" class="marker cross flowchart" id="my-svg_flowchart-crossStart"><path style="stroke-width: 2; stroke-dasharray: 1, 0;" class="arrowMarkerPath" d="M 1,1 l 9,9 M 10,1 l -9,9"/></marker><g class="root"><g class="clusters"><g id="Serialization" class="cluster default flowchart-label"><rect height="83.5" width="741.2265625" y="217" x="1084.091796875" ry="0" rx="0" style=""/><g transform="translate(1410.142578125, 217)" class="cluster-label"><foreignObject height="18.5" width="89.125"><div style="display: inline-block; white-space: nowrap;" xmlns="http://www.w3.org/1999/xhtml"><span class="nodeLabel">Serialization</span></div></foreignObject></g></g><g id="Conversion" class="cluster default flowchart-label"><rect height="83.5" width="565.7265625" y="217" x="498.365234375" ry="0" rx="0" style=""/><g transform="translate(742.205078125, 217)" class="cluster-label"><foreignObject height="18.5" width="78.046875"><div style="display: inline-block; white-space: nowrap;" xmlns="http://www.w3.org/1999/xhtml"><span class="nodeLabel">Conversion</span></div></foreignObject></g></g><g id="subGraph1" class="cluster default flowchart-label"><rect height="83.5" width="465.609375" y="217" x="12.755859375" ry="0" rx="0" style=""/><g transform="translate(201.455078125, 217)" class="cluster-label"><foreignObject height="18.5" width="88.2109375"><div style="display: inline-block; white-space: nowrap;" xmlns="http://www.w3.org/1999/xhtml"><span class="nodeLabel">Type System</span></div></foreignObject></g></g><g id="subGraph0" class="cluster default flowchart-label"><rect height="167" width="1793.98828125" y="0" x="0" ry="0" rx="0" style=""/><g transform="translate(842.068359375, 0)" class="cluster-label"><foreignObject height="18.5" width="109.8515625"><div style="display: inline-block; white-space: nowrap;" xmlns="http://www.w3.org/1999/xhtml"><span class="nodeLabel">Core Interfaces</span></div></foreignObject></g></g></g><g class="edgePaths"><path marker-end="url(#my-svg_flowchart-pointEnd)" style="fill:none;" class="edge-thickness-normal edge-pattern-solid flowchart-link LS-Object LE-TypeMeta" id="L-Object-TypeMeta-0" d="M184.44263426272454,58.5L168.56189573977045,62.666666666666664C152.68115721681636,66.83333333333333,120.91968017090818,75.16666666666667,105.0389416479541,86.29166666666667C89.158203125,97.41666666666667,89.158203125,111.33333333333333,89.158203125,125.25C89.158203125,139.16666666666666,89.158203125,153.08333333333334,89.158203125,164.20833333333334C89.158203125,175.33333333333334,89.158203125,183.66666666666666,89.158203125,192C89.158203125,200.33333333333334,89.158203125,208.66666666666666,89.158203125,216.11666666666667C89.158203125,223.5666666666667,89.158203125,230.13333333333333,89.158203125,233.41666666666666L89.158203125,236.7"/><path marker-end="url(#my-svg_flowchart-pointEnd)" style="fill:none;" class="edge-thickness-normal edge-pattern-solid flowchart-link LS-Object LE-Scheme" id="L-Object-Scheme-0" d="M308.1697815306886,58.5L323.06694033807383,62.666666666666664C337.9640991454591,66.83333333333333,367.7584167602295,75.16666666666667,382.6555755676148,82.61666666666666C397.552734375,90.06666666666666,397.552734375,96.63333333333333,397.552734375,99.91666666666667L397.552734375,103.2"/><path marker-end="url(#my-svg_flowchart-pointEnd)" style="fill:none;" class="edge-thickness-normal edge-pattern-solid flowchart-link LS-Scheme LE-GVK" id="L-Scheme-GVK-0" d="M362.505859375,135.23456658492375L343.9225260416667,140.52880548743647C325.3391927083333,145.82304438994916,288.1725260416667,156.4115221949746,269.5891927083333,165.87242776415397C251.005859375,175.33333333333334,251.005859375,183.66666666666666,251.005859375,192C251.005859375,200.33333333333334,251.005859375,208.66666666666666,251.005859375,216.11666666666667C251.005859375,223.5666666666667,251.005859375,230.13333333333333,251.005859375,233.41666666666666L251.005859375,236.7"/><path marker-end="url(#my-svg_flowchart-pointEnd)" style="fill:none;" class="edge-thickness-normal edge-pattern-solid flowchart-link LS-Scheme LE-Type" id="L-Scheme-Type-0" d="M401.50672483158684,142L402.49030454715574,146.16666666666666C403.47388426272454,150.33333333333334,405.44104369386224,158.66666666666666,406.42462340943115,167C407.408203125,175.33333333333334,407.408203125,183.66666666666666,407.408203125,192C407.408203125,200.33333333333334,407.408203125,208.66666666666666,407.408203125,216.11666666666667C407.408203125,223.5666666666667,407.408203125,230.13333333333333,407.408203125,233.41666666666666L407.408203125,236.7"/><path marker-end="url(#my-svg_flowchart-pointEnd)" style="fill:none;" class="edge-thickness-normal edge-pattern-solid flowchart-link LS-Scheme LE-Converter" id="L-Scheme-Converter-0" d="M432.599609375,132.45777771363697L460.5924479166667,138.21481476136412C488.5852864583333,143.9718518090913,544.5709635416666,155.48592590454567,572.5638020833334,165.40962961893948C600.556640625,175.33333333333334,600.556640625,183.66666666666666,600.556640625,192C600.556640625,200.33333333333334,600.556640625,208.66666666666666,600.556640625,216.11666666666667C600.556640625,223.5666666666667,600.556640625,230.13333333333333,600.556640625,233.41666666666666L600.556640625,236.7"/><path marker-end="url(#my-svg_flowchart-pointEnd)" style="fill:none;" class="edge-thickness-normal edge-pattern-solid flowchart-link LS-Codec LE-Encoder" id="L-Codec-Encoder-0" d="M1505.0165138473053,58.5L1495.3575115394212,62.666666666666664C1485.698509231537,66.83333333333333,1466.3805046157686,75.16666666666667,1456.7215023078843,82.61666666666666C1447.0625,90.06666666666666,1447.0625,96.63333333333333,1447.0625,99.91666666666667L1447.0625,103.2"/><path marker-end="url(#my-svg_flowchart-pointEnd)" style="fill:none;" class="edge-thickness-normal edge-pattern-solid flowchart-link LS-Codec LE-Decoder" id="L-Codec-Decoder-0" d="M1601.23811751497,58.5L1615.5148375124752,62.666666666666664C1629.7915575099803,66.83333333333333,1658.34499750499,75.16666666666667,1672.621717502495,82.61666666666666C1686.8984375,90.06666666666666,1686.8984375,96.63333333333333,1686.8984375,99.91666666666667L1686.8984375,103.2"/><path marker-end="url(#my-svg_flowchart-pointEnd)" style="fill:none;" class="edge-thickness-normal edge-pattern-solid flowchart-link LS-Encoder LE-JSON" id="L-Encoder-JSON-0" d="M1375.5859375,136.46061127457094L1343.1337890625,141.55050939547579C1310.681640625,146.64040751638063,1245.77734375,156.82020375819033,1213.3251953125,166.07676854576184C1180.873046875,175.33333333333334,1180.873046875,183.66666666666666,1180.873046875,192C1180.873046875,200.33333333333334,1180.873046875,208.66666666666666,1180.873046875,216.11666666666667C1180.873046875,223.5666666666667,1180.873046875,230.13333333333333,1180.873046875,233.41666666666666L1180.873046875,236.7"/><path marker-end="url(#my-svg_flowchart-pointEnd)" style="fill:none;" class="edge-thickness-normal edge-pattern-solid flowchart-link LS-Encoder LE-YAML" id="L-Encoder-YAML-0" d="M1409.7816827282934,142L1400.507847586078,146.16666666666666C1391.2340124438622,150.33333333333334,1372.686342159431,158.66666666666666,1363.4125070172156,167C1354.138671875,175.33333333333334,1354.138671875,183.66666666666666,1354.138671875,192C1354.138671875,200.33333333333334,1354.138671875,208.66666666666666,1354.138671875,216.11666666666667C1354.138671875,223.5666666666667,1354.138671875,230.13333333333333,1354.138671875,233.41666666666666L1354.138671875,236.7"/><path marker-end="url(#my-svg_flowchart-pointEnd)" style="fill:none;" class="edge-thickness-normal edge-pattern-solid flowchart-link LS-Encoder LE-Protobuf" id="L-Encoder-Protobuf-0" d="M1484.3433172717066,142L1493.617152413922,146.16666666666666C1502.8909875561378,150.33333333333334,1521.438657840569,158.66666666666666,1530.7124929827844,167C1539.986328125,175.33333333333334,1539.986328125,183.66666666666666,1539.986328125,192C1539.986328125,200.33333333333334,1539.986328125,208.66666666666666,1539.986328125,216.11666666666667C1539.986328125,223.5666666666667,1539.986328125,230.13333333333333,1539.986328125,233.41666666666666L1539.986328125,236.7"/><path marker-end="url(#my-svg_flowchart-pointEnd)" style="fill:none;" class="edge-thickness-normal edge-pattern-solid flowchart-link LS-Encoder LE-CBOR" id="L-Encoder-CBOR-0" d="M1518.5390625,135.89734249019156L1553.3382161458333,141.08111874182632C1588.1373697916667,146.26489499346104,1657.7356770833333,156.63244749673052,1692.5348307291667,165.98289041503193C1727.333984375,175.33333333333334,1727.333984375,183.66666666666666,1727.333984375,192C1727.333984375,200.33333333333334,1727.333984375,208.66666666666666,1727.333984375,216.11666666666667C1727.333984375,223.5666666666667,1727.333984375,230.13333333333333,1727.333984375,233.41666666666666L1727.333984375,236.7"/></g><g class="edgeLabels"><g class="edgeLabel"><g transform="translate(0, 0)" class="label"><foreignObject height="0" width="0"><div style="display: inline-block; white-space: nowrap;" xmlns="http://www.w3.org/1999/xhtml"><span class="edgeLabel"></span></div></foreignObject></g></g><g class="edgeLabel"><g transform="translate(0, 0)" class="label"><foreignObject height="0" width="0"><div style="display: inline-block; white-space: nowrap;" xmlns="http://www.w3.org/1999/xhtml"><span class="edgeLabel"></span></div></foreignObject></g></g><g class="edgeLabel"><g transform="translate(0, 0)" class="label"><foreignObject height="0" width="0"><div style="display: inline-block; white-space: nowrap;" xmlns="http://www.w3.org/1999/xhtml"><span class="edgeLabel"></span></div></foreignObject></g></g><g class="edgeLabel"><g transform="translate(0, 0)" class="label"><foreignObject height="0" width="0"><div style="display: inline-block; white-space: nowrap;" xmlns="http://www.w3.org/1999/xhtml"><span class="edgeLabel"></span></div></foreignObject></g></g><g class="edgeLabel"><g transform="translate(0, 0)" class="label"><foreignObject height="0" width="0"><div style="display: inline-block; white-space: nowrap;" xmlns="http://www.w3.org/1999/xhtml"><span class="edgeLabel"></span></div></foreignObject></g></g><g class="edgeLabel"><g transform="translate(0, 0)" class="label"><foreignObject height="0" width="0"><div style="display: inline-block; white-space: nowrap;" xmlns="http://www.w3.org/1999/xhtml"><span class="edgeLabel"></span></div></foreignObject></g></g><g class="edgeLabel"><g transform="translate(0, 0)" class="label"><foreignObject height="0" width="0"><div style="display: inline-block; white-space: nowrap;" xmlns="http://www.w3.org/1999/xhtml"><span class="edgeLabel"></span></div></foreignObject></g></g><g class="edgeLabel"><g transform="translate(0, 0)" class="label"><foreignObject height="0" width="0"><div style="display: inline-block; white-space: nowrap;" xmlns="http://www.w3.org/1999/xhtml"><span class="edgeLabel"></span></div></foreignObject></g></g><g class="edgeLabel"><g transform="translate(0, 0)" class="label"><foreignObject height="0" width="0"><div style="display: inline-block; white-space: nowrap;" xmlns="http://www.w3.org/1999/xhtml"><span class="edgeLabel"></span></div></foreignObject></g></g><g class="edgeLabel"><g transform="translate(0, 0)" class="label"><foreignObject height="0" width="0"><div style="display: inline-block; white-space: nowrap;" xmlns="http://www.w3.org/1999/xhtml"><span class="edgeLabel"></span></div></foreignObject></g></g><g class="edgeLabel"><g transform="translate(0, 0)" class="label"><foreignObject height="0" width="0"><div style="display: inline-block; white-space: nowrap;" xmlns="http://www.w3.org/1999/xhtml"><span class="edgeLabel"></span></div></foreignObject></g></g></g><g class="nodes"><g transform="translate(1180.873046875, 258.75)" id="flowchart-JSON-11" class="node default default flowchart-label"><rect height="33.5" width="123.5625" y="-16.75" x="-61.78125" ry="0" rx="0" style="" class="basic label-container"/><g transform="translate(-54.28125, -9.25)" style="" class="label"><rect/><foreignObject height="18.5" width="108.5625"><div style="display: inline-block; white-space: nowrap;" xmlns="http://www.w3.org/1999/xhtml"><span class="nodeLabel">JSON Serializer</span></div></foreignObject></g></g><g transform="translate(1354.138671875, 258.75)" id="flowchart-YAML-12" class="node default default flowchart-label"><rect height="33.5" width="122.96875" y="-16.75" x="-61.484375" ry="0" rx="0" style="" class="basic label-container"/><g transform="translate(-53.984375, -9.25)" style="" class="label"><rect/><foreignObject height="18.5" width="107.96875"><div style="display: inline-block; white-space: nowrap;" xmlns="http://www.w3.org/1999/xhtml"><span class="nodeLabel">YAML Serializer</span></div></foreignObject></g></g><g transform="translate(1539.986328125, 258.75)" id="flowchart-Protobuf-13" class="node default default flowchart-label"><rect height="33.5" width="148.7265625" y="-16.75" x="-74.36328125" ry="0" rx="0" style="" class="basic label-container"/><g transform="translate(-66.86328125, -9.25)" style="" class="label"><rect/><foreignObject height="18.5" width="133.7265625"><div style="display: inline-block; white-space: nowrap;" xmlns="http://www.w3.org/1999/xhtml"><span class="nodeLabel">Protobuf Serializer</span></div></foreignObject></g></g><g transform="translate(1727.333984375, 258.75)" id="flowchart-CBOR-14" class="node default default flowchart-label"><rect height="33.5" width="125.96875" y="-16.75" x="-62.984375" ry="0" rx="0" style="" class="basic label-container"/><g transform="translate(-55.484375, -9.25)" style="" class="label"><rect/><foreignObject height="18.5" width="110.96875"><div style="display: inline-block; white-space: nowrap;" xmlns="http://www.w3.org/1999/xhtml"><span class="nodeLabel">CBOR Serializer</span></div></foreignObject></g></g><g transform="translate(600.556640625, 258.75)" id="flowchart-Converter-8" class="node default default flowchart-label"><rect height="33.5" width="134.3828125" y="-16.75" x="-67.19140625" ry="0" rx="0" style="" class="basic label-container"/><g transform="translate(-59.69140625, -9.25)" style="" class="label"><rect/><foreignObject height="18.5" width="119.3828125"><div style="display: inline-block; white-space: nowrap;" xmlns="http://www.w3.org/1999/xhtml"><span class="nodeLabel">ObjectConvertor</span></div></foreignObject></g></g><g transform="translate(782.837890625, 258.75)" id="flowchart-Versioner-9" class="node default default flowchart-label"><rect height="33.5" width="130.1796875" y="-16.75" x="-65.08984375" ry="0" rx="0" style="" class="basic label-container"/><g transform="translate(-57.58984375, -9.25)" style="" class="label"><rect/><foreignObject height="18.5" width="115.1796875"><div style="display: inline-block; white-space: nowrap;" xmlns="http://www.w3.org/1999/xhtml"><span class="nodeLabel">ObjectVersioner</span></div></foreignObject></g></g><g transform="translate(963.509765625, 258.75)" id="flowchart-Defaulter-10" class="node default default flowchart-label"><rect height="33.5" width="131.1640625" y="-16.75" x="-65.58203125" ry="0" rx="0" style="" class="basic label-container"/><g transform="translate(-58.08203125, -9.25)" style="" class="label"><rect/><foreignObject height="18.5" width="116.1640625"><div style="display: inline-block; white-space: nowrap;" xmlns="http://www.w3.org/1999/xhtml"><span class="nodeLabel">ObjectDefaulter</span></div></foreignObject></g></g><g transform="translate(251.005859375, 258.75)" id="flowchart-GVK-5" class="node default default flowchart-label"><rect height="33.5" width="140.890625" y="-16.75" x="-70.4453125" ry="0" rx="0" style="" class="basic label-container"/><g transform="translate(-62.9453125, -9.25)" style="" class="label"><rect/><foreignObject height="18.5" width="125.890625"><div style="display: inline-block; white-space: nowrap;" xmlns="http://www.w3.org/1999/xhtml"><span class="nodeLabel">GroupVersionKind</span></div></foreignObject></g></g><g transform="translate(407.408203125, 258.75)" id="flowchart-Type-6" class="node default default flowchart-label"><rect height="33.5" width="71.9140625" y="-16.75" x="-35.95703125" ry="0" rx="0" style="" class="basic label-container"/><g transform="translate(-28.45703125, -9.25)" style="" class="label"><rect/><foreignObject height="18.5" width="56.9140625"><div style="display: inline-block; white-space: nowrap;" xmlns="http://www.w3.org/1999/xhtml"><span class="nodeLabel">Go Type</span></div></foreignObject></g></g><g transform="translate(89.158203125, 258.75)" id="flowchart-TypeMeta-7" class="node default default flowchart-label"><rect height="33.5" width="82.8046875" y="-16.75" x="-41.40234375" ry="0" rx="0" style="" class="basic label-container"/><g transform="translate(-33.90234375, -9.25)" style="" class="label"><rect/><foreignObject height="18.5" width="67.8046875"><div style="display: inline-block; white-space: nowrap;" xmlns="http://www.w3.org/1999/xhtml"><span class="nodeLabel">TypeMeta</span></div></foreignObject></g></g><g transform="translate(248.283203125, 41.75)" id="flowchart-Object-0" class="node default default flowchart-label"><rect height="33.5" width="133.828125" y="-16.75" x="-66.9140625" ry="0" rx="0" style="fill:#fff4e1;" class="basic label-container"/><g transform="translate(-59.4140625, -9.25)" style="" class="label"><rect/><foreignObject height="18.5" width="118.828125"><div style="display: inline-block; white-space: nowrap;" xmlns="http://www.w3.org/1999/xhtml"><span class="nodeLabel">Object Interface</span></div></foreignObject></g></g><g transform="translate(397.552734375, 125.25)" id="flowchart-Scheme-1" class="node default default flowchart-label"><rect height="33.5" width="70.09375" y="-16.75" x="-35.046875" ry="0" rx="0" style="fill:#e1f5ff;" class="basic label-container"/><g transform="translate(-27.546875, -9.25)" style="" class="label"><rect/><foreignObject height="18.5" width="55.09375"><div style="display: inline-block; white-space: nowrap;" xmlns="http://www.w3.org/1999/xhtml"><span class="nodeLabel">Scheme</span></div></foreignObject></g></g><g transform="translate(1447.0625, 125.25)" id="flowchart-Encoder-2" class="node default default flowchart-label"><rect height="33.5" width="142.953125" y="-16.75" x="-71.4765625" ry="0" rx="0" style="" class="basic label-container"/><g transform="translate(-63.9765625, -9.25)" style="" class="label"><rect/><foreignObject height="18.5" width="127.953125"><div style="display: inline-block; white-space: nowrap;" xmlns="http://www.w3.org/1999/xhtml"><span class="nodeLabel">Encoder Interface</span></div></foreignObject></g></g><g transform="translate(1686.8984375, 125.25)" id="flowchart-Decoder-3" class="node default default flowchart-label"><rect height="33.5" width="144.1796875" y="-16.75" x="-72.08984375" ry="0" rx="0" style="" class="basic label-container"/><g transform="translate(-64.58984375, -9.25)" style="" class="label"><rect/><foreignObject height="18.5" width="129.1796875"><div style="display: inline-block; white-space: nowrap;" xmlns="http://www.w3.org/1999/xhtml"><span class="nodeLabel">Decoder Interface</span></div></foreignObject></g></g><g transform="translate(1543.845703125, 41.75)" id="flowchart-Codec-4" class="node default default flowchart-label"><rect height="33.5" width="128.9921875" y="-16.75" x="-64.49609375" ry="0" rx="0" style="fill:#f0ffe1;" class="basic label-container"/><g transform="translate(-56.99609375, -9.25)" style="" class="label"><rect/><foreignObject height="18.5" width="113.9921875"><div style="display: inline-block; white-space: nowrap;" xmlns="http://www.w3.org/1999/xhtml"><span class="nodeLabel">Codec Interface</span></div></foreignObject></g></g></g></g></g></svg>