<svg aria-roledescription="flowchart-v2" role="graphics-document document" viewBox="-8 -8 731.3984375 500" style="max-width: 731.398px; background-color: transparent;" xmlns:xlink="http://www.w3.org/1999/xlink" xmlns="http://www.w3.org/2000/svg" width="100%" id="my-svg"><style>#my-svg{font-family:"trebuchet ms",verdana,arial,sans-serif;font-size:16px;fill:#333;}#my-svg .error-icon{fill:#552222;}#my-svg .error-text{fill:#552222;stroke:#552222;}#my-svg .edge-thickness-normal{stroke-width:2px;}#my-svg .edge-thickness-thick{stroke-width:3.5px;}#my-svg .edge-pattern-solid{stroke-dasharray:0;}#my-svg .edge-pattern-dashed{stroke-dasharray:3;}#my-svg .edge-pattern-dotted{stroke-dasharray:2;}#my-svg .marker{fill:#333333;stroke:#333333;}#my-svg .marker.cross{stroke:#333333;}#my-svg svg{font-family:"trebuchet ms",verdana,arial,sans-serif;font-size:16px;}#my-svg .label{font-family:"trebuchet ms",verdana,arial,sans-serif;color:#333;}#my-svg .cluster-label text{fill:#333;}#my-svg .cluster-label span,#my-svg p{color:#333;}#my-svg .label text,#my-svg span,#my-svg p{fill:#333;color:#333;}#my-svg .node rect,#my-svg .node circle,#my-svg .node ellipse,#my-svg .node polygon,#my-svg .node path{fill:#ECECFF;stroke:#9370DB;stroke-width:1px;}#my-svg .flowchart-label text{text-anchor:middle;}#my-svg .node .label{text-align:center;}#my-svg .node.clickable{cursor:pointer;}#my-svg .arrowheadPath{fill:#333333;}#my-svg .edgePath .path{stroke:#333333;stroke-width:2.0px;}#my-svg .flowchart-link{stroke:#333333;fill:none;}#my-svg .edgeLabel{background-color:#e8e8e8;text-align:center;}#my-svg .edgeLabel rect{opacity:0.5;background-color:#e8e8e8;fill:#e8e8e8;}#my-svg .labelBkg{background-color:rgba(232, 232, 232, 0.5);}#my-svg .cluster rect{fill:#ffffde;stroke:#aaaa33;stroke-width:1px;}#my-svg .cluster text{fill:#333;}#my-svg .cluster span,#my-svg p{color:#333;}#my-svg div.mermaidTooltip{position:absolute;text-align:center;max-width:200px;padding:2px;font-family:"trebuchet ms",verdana,arial,sans-serif;font-size:12px;background:hsl(80, 100%, 96.2745098039%);border:1px solid #aaaa33;border-radius:2px;pointer-events:none;z-index:100;}#my-svg .flowchartTitleText{text-anchor:middle;font-size:18px;fill:#333;}#my-svg :root{--mermaid-font-family:"trebuchet ms",verdana,arial,sans-serif;}</style><g><marker orient="auto" markerHeight="12" markerWidth="12" markerUnits="userSpaceOnUse" refY="5" refX="6" viewBox="0 0 10 10" class="marker flowchart" id="my-svg_flowchart-pointEnd"><path style="stroke-width: 1; stroke-dasharray: 1, 0;" class="arrowMarkerPath" d="M 0 0 L 10 5 L 0 10 z"/></marker><marker orient="auto" markerHeight="12" markerWidth="12" markerUnits="userSpaceOnUse" refY="5" refX="4.5" viewBox="0 0 10 10" class="marker flowchart" id="my-svg_flowchart-pointStart"><path style="stroke-width: 1; stroke-dasharray: 1, 0;" class="arrowMarkerPath" d="M 0 5 L 10 10 L 10 0 z"/></marker><marker orient="auto" markerHeight="11" markerWidth="11" markerUnits="userSpaceOnUse" refY="5" refX="11" viewBox="0 0 10 10" class="marker flowchart" id="my-svg_flowchart-circleEnd"><circle style="stroke-width: 1; stroke-dasharray: 1, 0;" class="arrowMarkerPath" r="5" cy="5" cx="5"/></marker><marker orient="auto" markerHeight="11" markerWidth="11" markerUnits="userSpaceOnUse" refY="5" refX="-1" viewBox="0 0 10 10" class="marker flowchart" id="my-svg_flowchart-circleStart"><circle style="stroke-width: 1; stroke-dasharray: 1, 0;" class="arrowMarkerPath" r="5" cy="5" cx="5"/></marker><marker orient="auto" markerHeight="11" markerWidth="11" markerUnits="userSpaceOnUse" refY="5.2" refX="12" viewBox="0 0 11 11" class="marker cross flowchart" id="my-svg_flowchart-crossEnd"><path style="stroke-width: 2; stroke-dasharray: 1, 0;" class="arrowMarkerPath" d="M 1,1 l 9,9 M 10,1 l -9,9"/></marker><marker orient="auto" markerHeight="11" markerWidth="11" markerUnits="userSpaceOnUse" refY="5.2" refX="-1" viewBox="0 0 11 11" class="marker cross flowchart" id="my-svg_flowchart-crossStart"><path style="stroke-width: 2; stroke-dasharray: 1, 0;" class="arrowMarkerPath" d="M 1,1 l 9,9 M 10,1 l -9,9"/></marker><g class="root"><g class="clusters"><g id="Clients" class="cluster default flowchart-label"><rect height="83.5" width="715.3984375" y="400.5" x="0" ry="0" rx="0" style=""/><g transform="translate(333.12890625, 400.5)" class="cluster-label"><foreignObject height="18.5" width="49.140625"><div style="display: inline-block; white-space: nowrap;" xmlns="http://www.w3.org/1999/xhtml"><span class="nodeLabel">Clients</span></div></foreignObject></g></g><g id="subGraph2" class="cluster default flowchart-label"><rect height="83.5" width="697.28515625" y="267" x="5.09765625" ry="0" rx="0" style=""/><g transform="translate(278.548828125, 267)" class="cluster-label"><foreignObject height="18.5" width="150.3828125"><div style="display: inline-block; white-space: nowrap;" xmlns="http://www.w3.org/1999/xhtml"><span class="nodeLabel">Configuration Object</span></div></foreignObject></g></g><g id="subGraph1" class="cluster default flowchart-label"><rect height="83.5" width="573.4375" y="133.5" x="80.98046875" ry="0" rx="0" style=""/><g transform="translate(289.11328125, 133.5)" class="cluster-label"><foreignObject height="18.5" width="157.171875"><div style="display: inline-block; white-space: nowrap;" xmlns="http://www.w3.org/1999/xhtml"><span class="nodeLabel">Configuration Loading</span></div></foreignObject></g></g><g id="subGraph0" class="cluster default flowchart-label"><rect height="83.5" width="571.07421875" y="0" x="83.05859375" ry="0" rx="0" style=""/><g transform="translate(290.498046875, 0)" class="cluster-label"><foreignObject height="18.5" width="156.1953125"><div style="display: inline-block; white-space: nowrap;" xmlns="http://www.w3.org/1999/xhtml"><span class="nodeLabel">Configuration Sources</span></div></foreignObject></g></g></g><g class="edgePaths"><path marker-end="url(#my-svg_flowchart-pointEnd)" style="fill:none;" class="edge-thickness-normal edge-pattern-solid flowchart-link LS-kubeconfig LE-clientcmd" id="L-kubeconfig-clientcmd-0" d="M180.59765625,58.5L180.59765625,62.666666666666664C180.59765625,66.83333333333333,180.59765625,75.16666666666667,180.59765625,83.5C180.59765625,91.83333333333333,180.59765625,100.16666666666667,180.59765625,108.5C180.59765625,116.83333333333333,180.59765625,125.16666666666667,180.59765625,132.61666666666667C180.59765625,140.06666666666666,180.59765625,146.63333333333333,180.59765625,149.91666666666666L180.59765625,153.2"/><path marker-end="url(#my-svg_flowchart-pointEnd)" style="fill:none;" class="edge-thickness-normal edge-pattern-solid flowchart-link LS-incluster LE-rest" id="L-incluster-rest-0" d="M374.234375,58.5L374.234375,62.666666666666664C374.234375,66.83333333333333,374.234375,75.16666666666667,374.234375,83.5C374.234375,91.83333333333333,374.234375,100.16666666666667,374.234375,108.5C374.234375,116.83333333333333,374.234375,125.16666666666667,374.234375,132.61666666666667C374.234375,140.06666666666666,374.234375,146.63333333333333,374.234375,149.91666666666666L374.234375,153.2"/><path marker-end="url(#my-svg_flowchart-pointEnd)" style="fill:none;" class="edge-thickness-normal edge-pattern-solid flowchart-link LS-manual LE-builder" id="L-manual-builder-0" d="M561.3359375,58.5L561.3359375,62.666666666666664C561.3359375,66.83333333333333,561.3359375,75.16666666666667,561.3359375,83.5C561.3359375,91.83333333333333,561.3359375,100.16666666666667,561.3359375,108.5C561.3359375,116.83333333333333,561.3359375,125.16666666666667,561.3359375,132.61666666666667C561.3359375,140.06666666666666,561.3359375,146.63333333333333,561.3359375,149.91666666666666L561.3359375,153.2"/><path marker-end="url(#my-svg_flowchart-pointEnd)" style="fill:none;" class="edge-thickness-normal edge-pattern-solid flowchart-link LS-clientcmd LE-restconfig" id="L-clientcmd-restconfig-0" d="M180.59765625,192L180.59765625,196.16666666666666C180.59765625,200.33333333333334,180.59765625,208.66666666666666,180.59765625,217C180.59765625,225.33333333333334,180.59765625,233.66666666666666,180.59765625,242C180.59765625,250.33333333333334,180.59765625,258.6666666666667,198.75754035919007,267.53918474220774C216.91742446838018,276.4117028177488,253.23719268676032,285.8234056354975,271.3970767959504,290.5292570443719L289.5569609051405,295.23510845324626"/><path marker-end="url(#my-svg_flowchart-pointEnd)" style="fill:none;" class="edge-thickness-normal edge-pattern-solid flowchart-link LS-rest LE-restconfig" id="L-rest-restconfig-0" d="M374.234375,192L374.234375,196.16666666666666C374.234375,200.33333333333334,374.234375,208.66666666666666,374.234375,217C374.234375,225.33333333333334,374.234375,233.66666666666666,374.234375,242C374.234375,250.33333333333334,374.234375,258.6666666666667,371.53136962995455,266.3031533423467C368.82836425990916,273.93964001802675,363.4223535198183,280.87928003605356,360.7193481497729,284.34910004506696L358.01634277972744,287.81892005408037"/><path marker-end="url(#my-svg_flowchart-pointEnd)" style="fill:none;" class="edge-thickness-normal edge-pattern-solid flowchart-link LS-builder LE-restconfig" id="L-builder-restconfig-0" d="M561.3359375,192L561.3359375,196.16666666666666C561.3359375,200.33333333333334,561.3359375,208.66666666666666,561.3359375,217C561.3359375,225.33333333333334,561.3359375,233.66666666666666,561.3359375,242C561.3359375,250.33333333333334,561.3359375,258.6666666666667,533.4368032812315,268.1368682388932C505.537669062463,277.60706981111974,449.739400624926,288.21413962223943,421.8402664061575,293.51767452779933L393.9411321873891,298.8212094333592"/><path marker-end="url(#my-svg_flowchart-pointEnd)" style="fill:none;" class="edge-thickness-normal edge-pattern-solid flowchart-link LS-restconfig LE-clientset" id="L-restconfig-clientset-0" d="M294.6875,317.50174569453395L265.1373697916667,323.00145474544496C235.58723958333334,328.50116379635597,176.48697916666666,339.500581898178,146.93684895833334,349.1669576157556C117.38671875,358.8333333333333,117.38671875,367.1666666666667,117.38671875,375.5C117.38671875,383.8333333333333,117.38671875,392.1666666666667,117.38671875,399.6166666666666C117.38671875,407.06666666666666,117.38671875,413.6333333333334,117.38671875,416.9166666666667L117.38671875,420.2"/><path marker-end="url(#my-svg_flowchart-pointEnd)" style="fill:none;" class="edge-thickness-normal edge-pattern-solid flowchart-link LS-restconfig LE-dynamic" id="L-restconfig-dynamic-0" d="M341.7109375,325.5L341.7109375,329.6666666666667C341.7109375,333.8333333333333,341.7109375,342.1666666666667,341.7109375,350.5C341.7109375,358.8333333333333,341.7109375,367.1666666666667,341.7109375,375.5C341.7109375,383.8333333333333,341.7109375,392.1666666666667,341.7109375,399.6166666666666C341.7109375,407.06666666666666,341.7109375,413.6333333333334,341.7109375,416.9166666666667L341.7109375,420.2"/><path marker-end="url(#my-svg_flowchart-pointEnd)" style="fill:none;" class="edge-thickness-normal edge-pattern-solid flowchart-link LS-restconfig LE-discovery" id="L-restconfig-discovery-0" d="M388.734375,316.9194814694408L420.94921875,322.51623455786734C453.1640625,328.1129876462939,517.59375,339.3064938231469,549.80859375,349.0699135782402C582.0234375,358.8333333333333,582.0234375,367.1666666666667,582.0234375,375.5C582.0234375,383.8333333333333,582.0234375,392.1666666666667,582.0234375,399.6166666666666C582.0234375,407.06666666666666,582.0234375,413.6333333333334,582.0234375,416.9166666666667L582.0234375,420.2"/></g><g class="edgeLabels"><g class="edgeLabel"><g transform="translate(0, 0)" class="label"><foreignObject height="0" width="0"><div style="display: inline-block; white-space: nowrap;" xmlns="http://www.w3.org/1999/xhtml"><span class="edgeLabel"></span></div></foreignObject></g></g><g class="edgeLabel"><g transform="translate(0, 0)" class="label"><foreignObject height="0" width="0"><div style="display: inline-block; white-space: nowrap;" xmlns="http://www.w3.org/1999/xhtml"><span class="edgeLabel"></span></div></foreignObject></g></g><g class="edgeLabel"><g transform="translate(0, 0)" class="label"><foreignObject height="0" width="0"><div style="display: inline-block; white-space: nowrap;" xmlns="http://www.w3.org/1999/xhtml"><span class="edgeLabel"></span></div></foreignObject></g></g><g class="edgeLabel"><g transform="translate(0, 0)" class="label"><foreignObject height="0" width="0"><div style="display: inline-block; white-space: nowrap;" xmlns="http://www.w3.org/1999/xhtml"><span class="edgeLabel"></span></div></foreignObject></g></g><g class="edgeLabel"><g transform="translate(0, 0)" class="label"><foreignObject height="0" width="0"><div style="display: inline-block; white-space: nowrap;" xmlns="http://www.w3.org/1999/xhtml"><span class="edgeLabel"></span></div></foreignObject></g></g><g class="edgeLabel"><g transform="translate(0, 0)" class="label"><foreignObject height="0" width="0"><div style="display: inline-block; white-space: nowrap;" xmlns="http://www.w3.org/1999/xhtml"><span class="edgeLabel"></span></div></foreignObject></g></g><g class="edgeLabel"><g transform="translate(0, 0)" class="label"><foreignObject height="0" width="0"><div style="display: inline-block; white-space: nowrap;" xmlns="http://www.w3.org/1999/xhtml"><span class="edgeLabel"></span></div></foreignObject></g></g><g class="edgeLabel"><g transform="translate(0, 0)" class="label"><foreignObject height="0" width="0"><div style="display: inline-block; white-space: nowrap;" xmlns="http://www.w3.org/1999/xhtml"><span class="edgeLabel"></span></div></foreignObject></g></g><g class="edgeLabel"><g transform="translate(0, 0)" class="label"><foreignObject height="0" width="0"><div style="display: inline-block; white-space: nowrap;" xmlns="http://www.w3.org/1999/xhtml"><span class="edgeLabel"></span></div></foreignObject></g></g></g><g class="nodes"><g transform="translate(117.38671875, 442.25)" id="flowchart-clientset-7" class="node default default flowchart-label"><rect height="33.5" width="164.7734375" y="-16.75" x="-82.38671875" ry="0" rx="0" style="" class="basic label-container"/><g transform="translate(-74.88671875, -9.25)" style="" class="label"><rect/><foreignObject height="18.5" width="149.7734375"><div style="display: inline-block; white-space: nowrap;" xmlns="http://www.w3.org/1999/xhtml"><span class="nodeLabel">kubernetes.Clientset</span></div></foreignObject></g></g><g transform="translate(341.7109375, 442.25)" id="flowchart-dynamic-8" class="node default default flowchart-label"><rect height="33.5" width="183.875" y="-16.75" x="-91.9375" ry="0" rx="0" style="" class="basic label-container"/><g transform="translate(-84.4375, -9.25)" style="" class="label"><rect/><foreignObject height="18.5" width="168.875"><div style="display: inline-block; white-space: nowrap;" xmlns="http://www.w3.org/1999/xhtml"><span class="nodeLabel">dynamic.DynamicClient</span></div></foreignObject></g></g><g transform="translate(582.0234375, 442.25)" id="flowchart-discovery-9" class="node default default flowchart-label"><rect height="33.5" width="196.75" y="-16.75" x="-98.375" ry="0" rx="0" style="" class="basic label-container"/><g transform="translate(-90.875, -9.25)" style="" class="label"><rect/><foreignObject height="18.5" width="181.75"><div style="display: inline-block; white-space: nowrap;" xmlns="http://www.w3.org/1999/xhtml"><span class="nodeLabel">discovery.DiscoveryClient</span></div></foreignObject></g></g><g transform="translate(341.7109375, 308.75)" id="flowchart-restconfig-6" class="node default default flowchart-label"><rect height="33.5" width="94.046875" y="-16.75" x="-47.0234375" ry="0" rx="0" style="fill:#fff4e1;" class="basic label-container"/><g transform="translate(-39.5234375, -9.25)" style="" class="label"><rect/><foreignObject height="18.5" width="79.046875"><div style="display: inline-block; white-space: nowrap;" xmlns="http://www.w3.org/1999/xhtml"><span class="nodeLabel">rest.Config</span></div></foreignObject></g></g><g transform="translate(180.59765625, 175.25)" id="flowchart-clientcmd-3" class="node default default flowchart-label"><rect height="33.5" width="129.234375" y="-16.75" x="-64.6171875" ry="0" rx="0" style="fill:#e1f5ff;" class="basic label-container"/><g transform="translate(-57.1171875, -9.25)" style="" class="label"><rect/><foreignObject height="18.5" width="114.234375"><div style="display: inline-block; white-space: nowrap;" xmlns="http://www.w3.org/1999/xhtml"><span class="nodeLabel">tools/clientcmd</span></div></foreignObject></g></g><g transform="translate(374.234375, 175.25)" id="flowchart-rest-4" class="node default default flowchart-label"><rect height="33.5" width="158.0390625" y="-16.75" x="-79.01953125" ry="0" rx="0" style="" class="basic label-container"/><g transform="translate(-71.51953125, -9.25)" style="" class="label"><rect/><foreignObject height="18.5" width="143.0390625"><div style="display: inline-block; white-space: nowrap;" xmlns="http://www.w3.org/1999/xhtml"><span class="nodeLabel">rest.InClusterConfig</span></div></foreignObject></g></g><g transform="translate(561.3359375, 175.25)" id="flowchart-builder-5" class="node default default flowchart-label"><rect height="33.5" width="116.1640625" y="-16.75" x="-58.08203125" ry="0" rx="0" style="" class="basic label-container"/><g transform="translate(-50.58203125, -9.25)" style="" class="label"><rect/><foreignObject height="18.5" width="101.1640625"><div style="display: inline-block; white-space: nowrap;" xmlns="http://www.w3.org/1999/xhtml"><span class="nodeLabel">Config Builder</span></div></foreignObject></g></g><g transform="translate(180.59765625, 41.75)" id="flowchart-kubeconfig-0" class="node default default flowchart-label"><rect height="33.5" width="125.078125" y="-16.75" x="-62.5390625" ry="0" rx="0" style="" class="basic label-container"/><g transform="translate(-55.0390625, -9.25)" style="" class="label"><rect/><foreignObject height="18.5" width="110.078125"><div style="display: inline-block; white-space: nowrap;" xmlns="http://www.w3.org/1999/xhtml"><span class="nodeLabel">Kubeconfig File</span></div></foreignObject></g></g><g transform="translate(374.234375, 41.75)" id="flowchart-incluster-1" class="node default default flowchart-label"><rect height="33.5" width="135.09375" y="-16.75" x="-67.546875" ry="0" rx="0" style="" class="basic label-container"/><g transform="translate(-60.046875, -9.25)" style="" class="label"><rect/><foreignObject height="18.5" width="120.09375"><div style="display: inline-block; white-space: nowrap;" xmlns="http://www.w3.org/1999/xhtml"><span class="nodeLabel">In-Cluster Config</span></div></foreignObject></g></g><g transform="translate(561.3359375, 41.75)" id="flowchart-manual-2" class="node default default flowchart-label"><rect height="33.5" width="115.59375" y="-16.75" x="-57.796875" ry="0" rx="0" style="" class="basic label-container"/><g transform="translate(-50.296875, -9.25)" style="" class="label"><rect/><foreignObject height="18.5" width="100.59375"><div style="display: inline-block; white-space: nowrap;" xmlns="http://www.w3.org/1999/xhtml"><span class="nodeLabel">Manual Config</span></div></foreignObject></g></g></g></g></g></svg>