<svg aria-roledescription="flowchart-v2" role="graphics-document document" viewBox="-8 -8 1086.5859375 692" style="max-width: 1086.59px; background-color: transparent;" xmlns:xlink="http://www.w3.org/1999/xlink" xmlns="http://www.w3.org/2000/svg" width="100%" id="my-svg"><style>#my-svg{font-family:"trebuchet ms",verdana,arial,sans-serif;font-size:16px;fill:#333;}#my-svg .error-icon{fill:#552222;}#my-svg .error-text{fill:#552222;stroke:#552222;}#my-svg .edge-thickness-normal{stroke-width:2px;}#my-svg .edge-thickness-thick{stroke-width:3.5px;}#my-svg .edge-pattern-solid{stroke-dasharray:0;}#my-svg .edge-pattern-dashed{stroke-dasharray:3;}#my-svg .edge-pattern-dotted{stroke-dasharray:2;}#my-svg .marker{fill:#333333;stroke:#333333;}#my-svg .marker.cross{stroke:#333333;}#my-svg svg{font-family:"trebuchet ms",verdana,arial,sans-serif;font-size:16px;}#my-svg .label{font-family:"trebuchet ms",verdana,arial,sans-serif;color:#333;}#my-svg .cluster-label text{fill:#333;}#my-svg .cluster-label span,#my-svg p{color:#333;}#my-svg .label text,#my-svg span,#my-svg p{fill:#333;color:#333;}#my-svg .node rect,#my-svg .node circle,#my-svg .node ellipse,#my-svg .node polygon,#my-svg .node path{fill:#ECECFF;stroke:#9370DB;stroke-width:1px;}#my-svg .flowchart-label text{text-anchor:middle;}#my-svg .node .label{text-align:center;}#my-svg .node.clickable{cursor:pointer;}#my-svg .arrowheadPath{fill:#333333;}#my-svg .edgePath .path{stroke:#333333;stroke-width:2.0px;}#my-svg .flowchart-link{stroke:#333333;fill:none;}#my-svg .edgeLabel{background-color:#e8e8e8;text-align:center;}#my-svg .edgeLabel rect{opacity:0.5;background-color:#e8e8e8;fill:#e8e8e8;}#my-svg .labelBkg{background-color:rgba(232, 232, 232, 0.5);}#my-svg .cluster rect{fill:#ffffde;stroke:#aaaa33;stroke-width:1px;}#my-svg .cluster text{fill:#333;}#my-svg .cluster span,#my-svg p{color:#333;}#my-svg div.mermaidTooltip{position:absolute;text-align:center;max-width:200px;padding:2px;font-family:"trebuchet ms",verdana,arial,sans-serif;font-size:12px;background:hsl(80, 100%, 96.2745098039%);border:1px solid #aaaa33;border-radius:2px;pointer-events:none;z-index:100;}#my-svg .flowchartTitleText{text-anchor:middle;font-size:18px;fill:#333;}#my-svg :root{--mermaid-font-family:"trebuchet ms",verdana,arial,sans-serif;}</style><g><marker orient="auto" markerHeight="12" markerWidth="12" markerUnits="userSpaceOnUse" refY="5" refX="6" viewBox="0 0 10 10" class="marker flowchart" id="my-svg_flowchart-pointEnd"><path style="stroke-width: 1; stroke-dasharray: 1, 0;" class="arrowMarkerPath" d="M 0 0 L 10 5 L 0 10 z"/></marker><marker orient="auto" markerHeight="12" markerWidth="12" markerUnits="userSpaceOnUse" refY="5" refX="4.5" viewBox="0 0 10 10" class="marker flowchart" id="my-svg_flowchart-pointStart"><path style="stroke-width: 1; stroke-dasharray: 1, 0;" class="arrowMarkerPath" d="M 0 5 L 10 10 L 10 0 z"/></marker><marker orient="auto" markerHeight="11" markerWidth="11" markerUnits="userSpaceOnUse" refY="5" refX="11" viewBox="0 0 10 10" class="marker flowchart" id="my-svg_flowchart-circleEnd"><circle style="stroke-width: 1; stroke-dasharray: 1, 0;" class="arrowMarkerPath" r="5" cy="5" cx="5"/></marker><marker orient="auto" markerHeight="11" markerWidth="11" markerUnits="userSpaceOnUse" refY="5" refX="-1" viewBox="0 0 10 10" class="marker flowchart" id="my-svg_flowchart-circleStart"><circle style="stroke-width: 1; stroke-dasharray: 1, 0;" class="arrowMarkerPath" r="5" cy="5" cx="5"/></marker><marker orient="auto" markerHeight="11" markerWidth="11" markerUnits="userSpaceOnUse" refY="5.2" refX="12" viewBox="0 0 11 11" class="marker cross flowchart" id="my-svg_flowchart-crossEnd"><path style="stroke-width: 2; stroke-dasharray: 1, 0;" class="arrowMarkerPath" d="M 1,1 l 9,9 M 10,1 l -9,9"/></marker><marker orient="auto" markerHeight="11" markerWidth="11" markerUnits="userSpaceOnUse" refY="5.2" refX="-1" viewBox="0 0 11 11" class="marker cross flowchart" id="my-svg_flowchart-crossStart"><path style="stroke-width: 2; stroke-dasharray: 1, 0;" class="arrowMarkerPath" d="M 1,1 l 9,9 M 10,1 l -9,9"/></marker><g class="root"><g class="clusters"><g id="subGraph4" class="cluster default flowchart-label"><rect height="83.5" width="414.306640625" y="592.5" x="50.3984375" ry="0" rx="0" style=""/><g transform="translate(221.0244140625, 592.5)" class="cluster-label"><foreignObject height="18.5" width="73.0546875"><div style="display: inline-block; white-space: nowrap;" xmlns="http://www.w3.org/1999/xhtml"><span class="nodeLabel">API Server</span></div></foreignObject></g></g><g id="subGraph3" class="cluster default flowchart-label"><rect height="83.5" width="526.6484375" y="459" x="0" ry="0" rx="0" style=""/><g transform="translate(207.5234375, 459)" class="cluster-label"><foreignObject height="18.5" width="111.6015625"><div style="display: inline-block; white-space: nowrap;" xmlns="http://www.w3.org/1999/xhtml"><span class="nodeLabel">Transport Layer</span></div></foreignObject></g></g><g id="subGraph2" class="cluster default flowchart-label"><rect height="275.5" width="485.64453125" y="267" x="546.6484375" ry="0" rx="0" style=""/><g transform="translate(750.837890625, 267)" class="cluster-label"><foreignObject height="18.5" width="77.265625"><div style="display: inline-block; white-space: nowrap;" xmlns="http://www.w3.org/1999/xhtml"><span class="nodeLabel">Core Layer</span></div></foreignObject></g></g><g id="subGraph1" class="cluster default flowchart-label"><rect height="83.5" width="570.484375" y="133.5" x="500.1015625" ry="0" rx="0" style=""/><g transform="translate(720.46875, 133.5)" class="cluster-label"><foreignObject height="18.5" width="129.75"><div style="display: inline-block; white-space: nowrap;" xmlns="http://www.w3.org/1999/xhtml"><span class="nodeLabel">High-Level Clients</span></div></foreignObject></g></g><g id="subGraph0" class="cluster default flowchart-label"><rect height="83.5" width="577.25390625" y="0" x="483.07421875" ry="0" rx="0" style=""/><g transform="translate(709.064453125, 0)" class="cluster-label"><foreignObject height="18.5" width="125.2734375"><div style="display: inline-block; white-space: nowrap;" xmlns="http://www.w3.org/1999/xhtml"><span class="nodeLabel">Application Layer</span></div></foreignObject></g></g></g><g class="edgePaths"><path marker-end="url(#my-svg_flowchart-pointEnd)" style="fill:none;" class="edge-thickness-normal edge-pattern-solid flowchart-link LS-controller LE-informers" id="L-controller-informers-0" d="M610.83203125,58.5L610.83203125,62.666666666666664C610.83203125,66.83333333333333,610.83203125,75.16666666666667,610.83203125,83.5C610.83203125,91.83333333333333,610.83203125,100.16666666666667,610.83203125,108.5C610.83203125,116.83333333333333,610.83203125,125.16666666666667,610.83203125,132.61666666666667C610.83203125,140.06666666666666,610.83203125,146.63333333333333,610.83203125,149.91666666666666L610.83203125,153.2"/><path marker-end="url(#my-svg_flowchart-pointEnd)" style="fill:none;" class="edge-thickness-normal edge-pattern-solid flowchart-link LS-controller LE-clientset" id="L-controller-clientset-0" d="M592.631607877994,58.5L588.104139377495,62.666666666666664C583.576670876996,66.83333333333333,574.521733875998,75.16666666666667,569.994265375499,83.5C565.466796875,91.83333333333333,565.466796875,100.16666666666667,565.466796875,108.5C565.466796875,116.83333333333333,565.466796875,125.16666666666667,593.1131402539368,134.26476716485575C620.7594836328734,143.36286766304485,676.0521703907469,153.22573532608968,703.6985137696837,158.1571691576121L731.3448571486203,163.0886029891345"/><path marker-end="url(#my-svg_flowchart-pointEnd)" style="fill:none;" class="edge-thickness-normal edge-pattern-solid flowchart-link LS-cli LE-clientset" id="L-cli-clientset-0" d="M799.5234375,58.5L799.5234375,62.666666666666664C799.5234375,66.83333333333333,799.5234375,75.16666666666667,799.5234375,83.5C799.5234375,91.83333333333333,799.5234375,100.16666666666667,799.5234375,108.5C799.5234375,116.83333333333333,799.5234375,125.16666666666667,799.5234375,132.61666666666667C799.5234375,140.06666666666666,799.5234375,146.63333333333333,799.5234375,149.91666666666666L799.5234375,153.2"/><path marker-end="url(#my-svg_flowchart-pointEnd)" style="fill:none;" class="edge-thickness-normal edge-pattern-solid flowchart-link LS-apps LE-dynamic" id="L-apps-dynamic-0" d="M974.03515625,58.5L974.03515625,62.666666666666664C974.03515625,66.83333333333333,974.03515625,75.16666666666667,974.03515625,83.5C974.03515625,91.83333333333333,974.03515625,100.16666666666667,974.03515625,108.5C974.03515625,116.83333333333333,974.03515625,125.16666666666667,974.03515625,132.61666666666667C974.03515625,140.06666666666666,974.03515625,146.63333333333333,974.03515625,149.91666666666666L974.03515625,153.2"/><path marker-end="url(#my-svg_flowchart-pointEnd)" style="fill:none;" class="edge-thickness-normal edge-pattern-solid flowchart-link LS-informers LE-cache" id="L-informers-cache-0" d="M610.83203125,192L610.83203125,196.16666666666666C610.83203125,200.33333333333334,610.83203125,208.66666666666666,610.83203125,217C610.83203125,225.33333333333334,610.83203125,233.66666666666666,610.83203125,242C610.83203125,250.33333333333334,610.83203125,258.6666666666667,610.83203125,266.1166666666667C610.83203125,273.56666666666666,610.83203125,280.1333333333333,610.83203125,283.4166666666667L610.83203125,286.7"/><path marker-end="url(#my-svg_flowchart-pointEnd)" style="fill:none;" class="edge-thickness-normal edge-pattern-solid flowchart-link LS-clientset LE-rest" id="L-clientset-rest-0" d="M799.5234375,192L799.5234375,196.16666666666666C799.5234375,200.33333333333334,799.5234375,208.66666666666666,799.5234375,217C799.5234375,225.33333333333334,799.5234375,233.66666666666666,799.5234375,242C799.5234375,250.33333333333334,799.5234375,258.6666666666667,799.5234375,269.7916666666667C799.5234375,280.9166666666667,799.5234375,294.8333333333333,799.5234375,308.75C799.5234375,322.6666666666667,799.5234375,336.5833333333333,799.5234375,346.825C799.5234375,357.06666666666666,799.5234375,363.6333333333334,799.5234375,366.9166666666667L799.5234375,370.2"/><path marker-end="url(#my-svg_flowchart-pointEnd)" style="fill:none;" class="edge-thickness-normal edge-pattern-solid flowchart-link LS-dynamic LE-rest" id="L-dynamic-rest-0" d="M974.03515625,192L974.03515625,196.16666666666666C974.03515625,200.33333333333334,974.03515625,208.66666666666666,974.03515625,217C974.03515625,225.33333333333334,974.03515625,233.66666666666666,974.03515625,242C974.03515625,250.33333333333334,974.03515625,258.6666666666667,974.03515625,269.7916666666667C974.03515625,280.9166666666667,974.03515625,294.8333333333333,974.03515625,308.75C974.03515625,322.6666666666667,974.03515625,336.5833333333333,953.8975017215395,348.35937795038654C933.759847193079,360.1354225674398,893.484538136158,369.7708451348795,873.3468836076976,374.5885564185994L853.209229079237,379.40626770231927"/><path marker-end="url(#my-svg_flowchart-pointEnd)" style="fill:none;" class="edge-thickness-normal edge-pattern-solid flowchart-link LS-cache LE-rest" id="L-cache-rest-0" d="M610.83203125,325.5L610.83203125,329.6666666666667C610.83203125,333.8333333333333,610.83203125,342.1666666666667,633.329583477189,351.3111583660255C655.8271357043781,360.45565006538436,700.8222401587562,370.4113001307687,723.3197923859452,375.38912516346096L745.8173446131343,380.36695019615314"/><path marker-end="url(#my-svg_flowchart-pointEnd)" style="fill:none;" class="edge-thickness-normal edge-pattern-solid flowchart-link LS-rest LE-discovery" id="L-rest-discovery-0" d="M848.0546875,405.2172258193545L866.0084635416666,410.01435484946205C883.9622395833334,414.8114838795697,919.8697916666666,424.40574193978483,937.8235677083334,433.3695376365591C955.77734375,442.3333333333333,955.77734375,450.6666666666667,955.77734375,458.1166666666666C955.77734375,465.56666666666666,955.77734375,472.1333333333334,955.77734375,475.4166666666667L955.77734375,478.7"/><path marker-end="url(#my-svg_flowchart-pointEnd)" style="fill:none;" class="edge-thickness-normal edge-pattern-solid flowchart-link LS-rest LE-http" id="L-rest-http-0" d="M848.0546875,407.12061724147816L862.6751302083334,411.6005143678985C877.2955729166666,416.08041149431875,906.5364583333334,425.0402057471594,921.1569010416666,433.68676954024636C935.77734375,442.3333333333333,935.77734375,450.6666666666667,862.6362064839662,460.8628004846258C789.4950692179324,471.05893430258493,643.2127946858649,483.11786860516986,570.0716574198311,489.1473357564623L496.9305201537974,495.17680290775473"/><path marker-end="url(#my-svg_flowchart-pointEnd)" style="fill:none;" class="edge-thickness-normal edge-pattern-solid flowchart-link LS-rest LE-auth" id="L-rest-auth-0" d="M750.9921875,403.7801701621598L729.7926432291666,408.8168084684665C708.5930989583334,413.85344677477315,666.1940104166666,423.9267233873866,644.9944661458334,433.13002836036C623.794921875,442.3333333333333,623.794921875,450.6666666666667,573.5401194304936,460.5441609849027C523.2853169859872,470.42165530313883,422.77571209697436,481.8433106062777,372.520909652468,487.5541382578471L322.26610720796157,493.2649659094165"/><path marker-end="url(#my-svg_flowchart-pointEnd)" style="fill:none;" class="edge-thickness-normal edge-pattern-solid flowchart-link LS-rest LE-ratelimit" id="L-rest-ratelimit-0" d="M750.9921875,402.6019902607446L726.4593098958334,407.8349918839538C701.9264322916666,413.06799350716307,652.8606770833334,423.5339967535815,628.3277994791666,432.93366504345744C603.794921875,442.3333333333333,603.794921875,450.6666666666667,528.3423410033009,460.96922508029064C452.88976013160186,471.2717834939145,301.9845983882038,483.543566987829,226.53201751650468,489.6794587347863L151.07943664480564,495.81535048174356"/><path marker-end="url(#my-svg_flowchart-pointEnd)" style="fill:none;" class="edge-thickness-normal edge-pattern-solid flowchart-link LS-http LE-apiserver" id="L-http-apiserver-0" d="M429.32421875,517.5L429.32421875,521.6666666666666C429.32421875,525.8333333333334,429.32421875,534.1666666666666,429.32421875,542.5C429.32421875,550.8333333333334,429.32421875,559.1666666666666,429.32421875,567.5C429.32421875,575.8333333333334,429.32421875,584.1666666666666,412.92481883907175,592.2926905866709C396.52541892814344,600.4187145066752,363.72661910628693,608.3374290133503,347.3272191953586,612.296786266688L330.92781928443037,616.2561435200255"/><path marker-end="url(#my-svg_flowchart-pointEnd)" style="fill:none;" class="edge-thickness-normal edge-pattern-solid flowchart-link LS-auth LE-apiserver" id="L-auth-apiserver-0" d="M256.3984375,517.5L256.3984375,521.6666666666666C256.3984375,525.8333333333334,256.3984375,534.1666666666666,256.3984375,542.5C256.3984375,550.8333333333334,256.3984375,559.1666666666666,256.3984375,567.5C256.3984375,575.8333333333334,256.3984375,584.1666666666666,256.3984375,591.6166666666667C256.3984375,599.0666666666667,256.3984375,605.6333333333333,256.3984375,608.9166666666666L256.3984375,612.2"/><path marker-end="url(#my-svg_flowchart-pointEnd)" style="fill:none;" class="edge-thickness-normal edge-pattern-solid flowchart-link LS-ratelimit LE-apiserver" id="L-ratelimit-apiserver-0" d="M90.3984375,517.5L90.3984375,521.6666666666666C90.3984375,525.8333333333334,90.3984375,534.1666666666666,90.3984375,542.5C90.3984375,550.8333333333334,90.3984375,559.1666666666666,90.3984375,567.5C90.3984375,575.8333333333334,90.3984375,584.1666666666666,106.10864898225911,592.2845461609497C121.81886046451821,600.4024256552328,153.23928342903642,608.3048513104656,168.94949491129555,612.2560641380819L184.65970639355464,616.2072769656983"/></g><g class="edgeLabels"><g class="edgeLabel"><g transform="translate(0, 0)" class="label"><foreignObject height="0" width="0"><div style="display: inline-block; white-space: nowrap;" xmlns="http://www.w3.org/1999/xhtml"><span class="edgeLabel"></span></div></foreignObject></g></g><g class="edgeLabel"><g transform="translate(0, 0)" class="label"><foreignObject height="0" width="0"><div style="display: inline-block; white-space: nowrap;" xmlns="http://www.w3.org/1999/xhtml"><span class="edgeLabel"></span></div></foreignObject></g></g><g class="edgeLabel"><g transform="translate(0, 0)" class="label"><foreignObject height="0" width="0"><div style="display: inline-block; white-space: nowrap;" xmlns="http://www.w3.org/1999/xhtml"><span class="edgeLabel"></span></div></foreignObject></g></g><g class="edgeLabel"><g transform="translate(0, 0)" class="label"><foreignObject height="0" width="0"><div style="display: inline-block; white-space: nowrap;" xmlns="http://www.w3.org/1999/xhtml"><span class="edgeLabel"></span></div></foreignObject></g></g><g class="edgeLabel"><g transform="translate(0, 0)" class="label"><foreignObject height="0" width="0"><div style="display: inline-block; white-space: nowrap;" xmlns="http://www.w3.org/1999/xhtml"><span class="edgeLabel"></span></div></foreignObject></g></g><g class="edgeLabel"><g transform="translate(0, 0)" class="label"><foreignObject height="0" width="0"><div style="display: inline-block; white-space: nowrap;" xmlns="http://www.w3.org/1999/xhtml"><span class="edgeLabel"></span></div></foreignObject></g></g><g class="edgeLabel"><g transform="translate(0, 0)" class="label"><foreignObject height="0" width="0"><div style="display: inline-block; white-space: nowrap;" xmlns="http://www.w3.org/1999/xhtml"><span class="edgeLabel"></span></div></foreignObject></g></g><g class="edgeLabel"><g transform="translate(0, 0)" class="label"><foreignObject height="0" width="0"><div style="display: inline-block; white-space: nowrap;" xmlns="http://www.w3.org/1999/xhtml"><span class="edgeLabel"></span></div></foreignObject></g></g><g class="edgeLabel"><g transform="translate(0, 0)" class="label"><foreignObject height="0" width="0"><div style="display: inline-block; white-space: nowrap;" xmlns="http://www.w3.org/1999/xhtml"><span class="edgeLabel"></span></div></foreignObject></g></g><g class="edgeLabel"><g transform="translate(0, 0)" class="label"><foreignObject height="0" width="0"><div style="display: inline-block; white-space: nowrap;" xmlns="http://www.w3.org/1999/xhtml"><span class="edgeLabel"></span></div></foreignObject></g></g><g class="edgeLabel"><g transform="translate(0, 0)" class="label"><foreignObject height="0" width="0"><div style="display: inline-block; white-space: nowrap;" xmlns="http://www.w3.org/1999/xhtml"><span class="edgeLabel"></span></div></foreignObject></g></g><g class="edgeLabel"><g transform="translate(0, 0)" class="label"><foreignObject height="0" width="0"><div style="display: inline-block; white-space: nowrap;" xmlns="http://www.w3.org/1999/xhtml"><span class="edgeLabel"></span></div></foreignObject></g></g><g class="edgeLabel"><g transform="translate(0, 0)" class="label"><foreignObject height="0" width="0"><div style="display: inline-block; white-space: nowrap;" xmlns="http://www.w3.org/1999/xhtml"><span class="edgeLabel"></span></div></foreignObject></g></g><g class="edgeLabel"><g transform="translate(0, 0)" class="label"><foreignObject height="0" width="0"><div style="display: inline-block; white-space: nowrap;" xmlns="http://www.w3.org/1999/xhtml"><span class="edgeLabel"></span></div></foreignObject></g></g><g class="edgeLabel"><g transform="translate(0, 0)" class="label"><foreignObject height="0" width="0"><div style="display: inline-block; white-space: nowrap;" xmlns="http://www.w3.org/1999/xhtml"><span class="edgeLabel"></span></div></foreignObject></g></g></g><g class="nodes"><g transform="translate(256.3984375, 634.25)" id="flowchart-apiserver-12" class="node default default flowchart-label"><rect height="33.5" width="172.3203125" y="-16.75" x="-86.16015625" ry="0" rx="0" style="fill:#ffe1e1;" class="basic label-container"/><g transform="translate(-78.66015625, -9.25)" style="" class="label"><rect/><foreignObject height="18.5" width="157.3203125"><div style="display: inline-block; white-space: nowrap;" xmlns="http://www.w3.org/1999/xhtml"><span class="nodeLabel">Kubernetes API Server</span></div></foreignObject></g></g><g transform="translate(429.32421875, 500.75)" id="flowchart-http-9" class="node default default flowchart-label"><rect height="33.5" width="124.6484375" y="-16.75" x="-62.32421875" ry="0" rx="0" style="" class="basic label-container"/><g transform="translate(-54.82421875, -9.25)" style="" class="label"><rect/><foreignObject height="18.5" width="109.6484375"><div style="display: inline-block; white-space: nowrap;" xmlns="http://www.w3.org/1999/xhtml"><span class="nodeLabel">HTTP Transport</span></div></foreignObject></g></g><g transform="translate(256.3984375, 500.75)" id="flowchart-auth-10" class="node default default flowchart-label"><rect height="33.5" width="121.203125" y="-16.75" x="-60.6015625" ry="0" rx="0" style="" class="basic label-container"/><g transform="translate(-53.1015625, -9.25)" style="" class="label"><rect/><foreignObject height="18.5" width="106.203125"><div style="display: inline-block; white-space: nowrap;" xmlns="http://www.w3.org/1999/xhtml"><span class="nodeLabel">Authentication</span></div></foreignObject></g></g><g transform="translate(90.3984375, 500.75)" id="flowchart-ratelimit-11" class="node default default flowchart-label"><rect height="33.5" width="110.796875" y="-16.75" x="-55.3984375" ry="0" rx="0" style="" class="basic label-container"/><g transform="translate(-47.8984375, -9.25)" style="" class="label"><rect/><foreignObject height="18.5" width="95.796875"><div style="display: inline-block; white-space: nowrap;" xmlns="http://www.w3.org/1999/xhtml"><span class="nodeLabel">Rate Limiting</span></div></foreignObject></g></g><g transform="translate(799.5234375, 392.25)" id="flowchart-rest-6" class="node default default flowchart-label"><rect height="33.5" width="97.0625" y="-16.75" x="-48.53125" ry="0" rx="0" style="fill:#fff4e1;" class="basic label-container"/><g transform="translate(-41.03125, -9.25)" style="" class="label"><rect/><foreignObject height="18.5" width="82.0625"><div style="display: inline-block; white-space: nowrap;" xmlns="http://www.w3.org/1999/xhtml"><span class="nodeLabel">REST Client</span></div></foreignObject></g></g><g transform="translate(955.77734375, 500.75)" id="flowchart-discovery-7" class="node default default flowchart-label"><rect height="33.5" width="83.03125" y="-16.75" x="-41.515625" ry="0" rx="0" style="" class="basic label-container"/><g transform="translate(-34.015625, -9.25)" style="" class="label"><rect/><foreignObject height="18.5" width="68.03125"><div style="display: inline-block; white-space: nowrap;" xmlns="http://www.w3.org/1999/xhtml"><span class="nodeLabel">Discovery</span></div></foreignObject></g></g><g transform="translate(610.83203125, 308.75)" id="flowchart-cache-8" class="node default default flowchart-label"><rect height="33.5" width="58.3671875" y="-16.75" x="-29.18359375" ry="0" rx="0" style="" class="basic label-container"/><g transform="translate(-21.68359375, -9.25)" style="" class="label"><rect/><foreignObject height="18.5" width="43.3671875"><div style="display: inline-block; white-space: nowrap;" xmlns="http://www.w3.org/1999/xhtml"><span class="nodeLabel">Cache</span></div></foreignObject></g></g><g transform="translate(799.5234375, 175.25)" id="flowchart-clientset-3" class="node default default flowchart-label"><rect height="33.5" width="125.921875" y="-16.75" x="-62.9609375" ry="0" rx="0" style="" class="basic label-container"/><g transform="translate(-55.4609375, -9.25)" style="" class="label"><rect/><foreignObject height="18.5" width="110.921875"><div style="display: inline-block; white-space: nowrap;" xmlns="http://www.w3.org/1999/xhtml"><span class="nodeLabel">Typed Clientset</span></div></foreignObject></g></g><g transform="translate(610.83203125, 175.25)" id="flowchart-informers-4" class="node default default flowchart-label"><rect height="33.5" width="151.4609375" y="-16.75" x="-75.73046875" ry="0" rx="0" style="fill:#e1f5ff;" class="basic label-container"/><g transform="translate(-68.23046875, -9.25)" style="" class="label"><rect/><foreignObject height="18.5" width="136.4609375"><div style="display: inline-block; white-space: nowrap;" xmlns="http://www.w3.org/1999/xhtml"><span class="nodeLabel">Informers &amp; Listers</span></div></foreignObject></g></g><g transform="translate(974.03515625, 175.25)" id="flowchart-dynamic-5" class="node default default flowchart-label"><rect height="33.5" width="123.1015625" y="-16.75" x="-61.55078125" ry="0" rx="0" style="" class="basic label-container"/><g transform="translate(-54.05078125, -9.25)" style="" class="label"><rect/><foreignObject height="18.5" width="108.1015625"><div style="display: inline-block; white-space: nowrap;" xmlns="http://www.w3.org/1999/xhtml"><span class="nodeLabel">Dynamic Client</span></div></foreignObject></g></g><g transform="translate(610.83203125, 41.75)" id="flowchart-controller-0" class="node default default flowchart-label"><rect height="33.5" width="185.515625" y="-16.75" x="-92.7578125" ry="0" rx="0" style="fill:#d4f1d4;" class="basic label-container"/><g transform="translate(-85.2578125, -9.25)" style="" class="label"><rect/><foreignObject height="18.5" width="170.515625"><div style="display: inline-block; white-space: nowrap;" xmlns="http://www.w3.org/1999/xhtml"><span class="nodeLabel">Controllers &amp; Operators</span></div></foreignObject></g></g><g transform="translate(799.5234375, 41.75)" id="flowchart-cli-1" class="node default default flowchart-label"><rect height="33.5" width="77.3203125" y="-16.75" x="-38.66015625" ry="0" rx="0" style="" class="basic label-container"/><g transform="translate(-31.16015625, -9.25)" style="" class="label"><rect/><foreignObject height="18.5" width="62.3203125"><div style="display: inline-block; white-space: nowrap;" xmlns="http://www.w3.org/1999/xhtml"><span class="nodeLabel">CLI Tools</span></div></foreignObject></g></g><g transform="translate(974.03515625, 41.75)" id="flowchart-apps-2" class="node default default flowchart-label"><rect height="33.5" width="102.5859375" y="-16.75" x="-51.29296875" ry="0" rx="0" style="" class="basic label-container"/><g transform="translate(-43.79296875, -9.25)" style="" class="label"><rect/><foreignObject height="18.5" width="87.5859375"><div style="display: inline-block; white-space: nowrap;" xmlns="http://www.w3.org/1999/xhtml"><span class="nodeLabel">Applications</span></div></foreignObject></g></g></g></g></g></svg>